<svg xmlns="http://www.w3.org/2000/svg" width="960" height="1300" viewBox="0 0 960 1300" role="img" aria-label="LearnTrack — Enrollment Runtime Workflow">
<defs>
<marker id="arrow-blue" markerWidth="10" markerHeight="10" refX="8" refY="5" orient="auto" markerUnits="strokeWidth"><path d="M 0 0 L 10 5 L 0 10 z" fill="#2563eb"/></marker>
<marker id="arrow-green" markerWidth="10" markerHeight="10" refX="8" refY="5" orient="auto" markerUnits="strokeWidth"><path d="M 0 0 L 10 5 L 0 10 z" fill="#059669"/></marker>
<marker id="arrow-orange" markerWidth="10" markerHeight="10" refX="8" refY="5" orient="auto" markerUnits="strokeWidth"><path d="M 0 0 L 10 5 L 0 10 z" fill="#d97706"/></marker>
<marker id="arrow-purple" markerWidth="10" markerHeight="10" refX="8" refY="5" orient="auto" markerUnits="strokeWidth"><path d="M 0 0 L 10 5 L 0 10 z" fill="#7c3aed"/></marker>
<marker id="arrow-gray" markerWidth="10" markerHeight="10" refX="8" refY="5" orient="auto" markerUnits="strokeWidth"><path d="M 0 0 L 10 5 L 0 10 z" fill="#64748b"/></marker>
<marker id="arrow-pink" markerWidth="10" markerHeight="10" refX="8" refY="5" orient="auto" markerUnits="strokeWidth"><path d="M 0 0 L 10 5 L 0 10 z" fill="#db2777"/></marker>
<marker id="inherit" markerWidth="14" markerHeight="14" refX="12" refY="7" orient="auto" markerUnits="strokeWidth"><path d="M 0 0 L 13 7 L 0 14 z" fill="white" stroke="#2563eb" stroke-width="1.8"/></marker>
</defs>
<rect x="0" y="0" width="960" height="1300" fill="#ffffff"/>
<text x="480.0" y="34" font-family="Inter, Segoe UI, Arial, sans-serif" font-size="22" font-weight="700" text-anchor="middle" fill="#111827">LearnTrack — Enrollment Runtime Workflow</text>
<text x="480.0" y="58" font-family="Inter, Segoe UI, Arial, sans-serif" font-size="13" text-anchor="middle" fill="#4b5563">How EnrollmentService decides between accepted, waitlisted, and rejected outcomes</text>
<g transform="translate(320,100)">
<rect x="0" y="0" width="320" height="85" rx="14" fill="#ffffff" stroke="#334155" stroke-width="1.2"/>
<rect x="0" y="0" width="320" height="34" rx="14" fill="#dcfce7" stroke="#334155" stroke-width="1.2"/>
<path d="M 0 32 H 320" stroke="#334155" stroke-width="1"/>
<text x="160.0" y="23" font-family="Inter, Segoe UI, Arial, sans-serif" font-size="14" font-weight="700" text-anchor="middle" fill="#111827">Admin submits enrollment</text>
<text x="18" y="52" font-family="Inter, Segoe UI, Arial, sans-serif" font-size="12" fill="#4b5563"><tspan font-weight="700" fill="#111827">Inputs:</tspan> studentId, courseId</text>
</g>
<g transform="translate(320,230)">
<rect x="0" y="0" width="320" height="90" rx="14" fill="#ffffff" stroke="#334155" stroke-width="1.2"/>
<rect x="0" y="0" width="320" height="34" rx="14" fill="#dbeafe" stroke="#334155" stroke-width="1.2"/>
<path d="M 0 32 H 320" stroke="#334155" stroke-width="1"/>
<text x="160.0" y="23" font-family="Inter, Segoe UI, Arial, sans-serif" font-size="14" font-weight="700" text-anchor="middle" fill="#111827">Find Student and Course</text>
<text x="18" y="52" font-family="Inter, Segoe UI, Arial, sans-serif" font-size="12" fill="#4b5563"><tspan font-weight="700" fill="#111827">Services:</tspan> StudentService, CourseService</text>
</g>
<polygon points="480,332.5 620.0,390 480,447.5 340.0,390" fill="#fff7ed" stroke="#334155" stroke-width="1.2"/>
<text x="480" y="383" font-family="Inter, Segoe UI, Arial, sans-serif" font-size="12" font-weight="700" text-anchor="middle" fill="#111827">student active and</text>
<text x="480" y="398" font-family="Inter, Segoe UI, Arial, sans-serif" font-size="12" font-weight="700" text-anchor="middle" fill="#111827">course open?</text>
<polygon points="480,517.5 620.0,575 480,632.5 340.0,575" fill="#fff7ed" stroke="#334155" stroke-width="1.2"/>
<text x="480" y="568" font-family="Inter, Segoe UI, Arial, sans-serif" font-size="12" font-weight="700" text-anchor="middle" fill="#111827">duplicate open</text>
<text x="480" y="583" font-family="Inter, Segoe UI, Arial, sans-serif" font-size="12" font-weight="700" text-anchor="middle" fill="#111827">enrollment?</text>
<polygon points="480,702.5 620.0,760 480,817.5 340.0,760" fill="#fff7ed" stroke="#334155" stroke-width="1.2"/>
<text x="480" y="753" font-family="Inter, Segoe UI, Arial, sans-serif" font-size="12" font-weight="700" text-anchor="middle" fill="#111827">active seats</text>
<text x="480" y="768" font-family="Inter, Segoe UI, Arial, sans-serif" font-size="12" font-weight="700" text-anchor="middle" fill="#111827">available?</text>
<g transform="translate(80,955)">
<rect x="0" y="0" width="260" height="105" rx="14" fill="#ffffff" stroke="#334155" stroke-width="1.2"/>
<rect x="0" y="0" width="260" height="34" rx="14" fill="#fee2e2" stroke="#334155" stroke-width="1.2"/>
<path d="M 0 32 H 260" stroke="#334155" stroke-width="1"/>
<text x="130.0" y="23" font-family="Inter, Segoe UI, Arial, sans-serif" font-size="14" font-weight="700" text-anchor="middle" fill="#111827">Rejected</text>
<text x="18" y="52" font-family="Inter, Segoe UI, Arial, sans-serif" font-size="12" fill="#4b5563"><tspan font-weight="700" fill="#111827">Reason:</tspan> rule violation</text>
<text x="18" y="70" font-family="Inter, Segoe UI, Arial, sans-serif" font-size="12" fill="#4b5563"><tspan font-weight="700" fill="#111827">Output:</tspan> exception message</text>
</g>
<g transform="translate(365,955)">
<rect x="0" y="0" width="260" height="105" rx="14" fill="#ffffff" stroke="#334155" stroke-width="1.2"/>
<rect x="0" y="0" width="260" height="34" rx="14" fill="#dcfce7" stroke="#334155" stroke-width="1.2"/>
<path d="M 0 32 H 260" stroke="#334155" stroke-width="1"/>
<text x="130.0" y="23" font-family="Inter, Segoe UI, Arial, sans-serif" font-size="14" font-weight="700" text-anchor="middle" fill="#111827">Accepted</text>
<text x="18" y="52" font-family="Inter, Segoe UI, Arial, sans-serif" font-size="12" fill="#4b5563"><tspan font-weight="700" fill="#111827">Status:</tspan> ACTIVE</text>
<text x="18" y="70" font-family="Inter, Segoe UI, Arial, sans-serif" font-size="12" fill="#4b5563"><tspan font-weight="700" fill="#111827">Seat:</tspan> occupied</text>
</g>
<g transform="translate(650,955)">
<rect x="0" y="0" width="260" height="105" rx="14" fill="#ffffff" stroke="#334155" stroke-width="1.2"/>
<rect x="0" y="0" width="260" height="34" rx="14" fill="#fef3c7" stroke="#334155" stroke-width="1.2"/>
<path d="M 0 32 H 260" stroke="#334155" stroke-width="1"/>
<text x="130.0" y="23" font-family="Inter, Segoe UI, Arial, sans-serif" font-size="14" font-weight="700" text-anchor="middle" fill="#111827">Waitlisted</text>
<text x="18" y="52" font-family="Inter, Segoe UI, Arial, sans-serif" font-size="12" fill="#4b5563"><tspan font-weight="700" fill="#111827">Status:</tspan> WAITLISTED</text>
<text x="18" y="70" font-family="Inter, Segoe UI, Arial, sans-serif" font-size="12" fill="#4b5563"><tspan font-weight="700" fill="#111827">Seat:</tspan> not occupied</text>
</g>
<g transform="translate(320,1145)">
<rect x="0" y="0" width="320" height="95" rx="14" fill="#ffffff" stroke="#334155" stroke-width="1.2"/>
<rect x="0" y="0" width="320" height="34" rx="14" fill="#ede9fe" stroke="#334155" stroke-width="1.2"/>
<path d="M 0 32 H 320" stroke="#334155" stroke-width="1"/>
<text x="160.0" y="23" font-family="Inter, Segoe UI, Arial, sans-serif" font-size="14" font-weight="700" text-anchor="middle" fill="#111827">Record outcome</text>
<text x="18" y="52" font-family="Inter, Segoe UI, Arial, sans-serif" font-size="12" fill="#4b5563"><tspan font-weight="700" fill="#111827">Creates:</tspan> OperationReceipt</text>
<text x="18" y="70" font-family="Inter, Segoe UI, Arial, sans-serif" font-size="12" fill="#4b5563"><tspan font-weight="700" fill="#111827">Records:</tspan> ActionLogEntry</text>
</g>
<line x1="480" y1="185" x2="480" y2="230" stroke="#64748b" stroke-width="1.7" marker-end="url(#arrow-gray)"/>
<line x1="480" y1="320" x2="480" y2="333" stroke="#64748b" stroke-width="1.7" marker-end="url(#arrow-gray)"/>
<line x1="480" y1="447" x2="480" y2="518" stroke="#059669" stroke-width="1.7" marker-end="url(#arrow-green)"/>
<rect x="489.25" y="482" width="31.5" height="18" rx="6" fill="#ffffff" stroke="#e5e7eb"/>
<text x="505" y="495" font-family="Inter, Segoe UI, Arial, sans-serif" font-size="11" font-weight="600" text-anchor="middle" fill="#059669">yes</text>
<path d="M 340 390 H 210 V 955" fill="none" stroke="#64748b" stroke-width="1.7" marker-end="url(#arrow-gray)"/>
<rect x="225.5" y="377" width="25.0" height="18" rx="6" fill="#ffffff" stroke="#e5e7eb"/>
<text x="238" y="390" font-family="Inter, Segoe UI, Arial, sans-serif" font-size="11" font-weight="600" text-anchor="middle" fill="#64748b">no</text>
<line x1="480" y1="632" x2="480" y2="703" stroke="#059669" stroke-width="1.7" marker-end="url(#arrow-green)"/>
<rect x="492.5" y="667" width="25.0" height="18" rx="6" fill="#ffffff" stroke="#e5e7eb"/>
<text x="505" y="680" font-family="Inter, Segoe UI, Arial, sans-serif" font-size="11" font-weight="600" text-anchor="middle" fill="#059669">no</text>
<path d="M 340 575 H 210 V 955" fill="none" stroke="#64748b" stroke-width="1.7" marker-end="url(#arrow-gray)"/>
<rect x="222.25" y="562" width="31.5" height="18" rx="6" fill="#ffffff" stroke="#e5e7eb"/>
<text x="238" y="575" font-family="Inter, Segoe UI, Arial, sans-serif" font-size="11" font-weight="600" text-anchor="middle" fill="#64748b">yes</text>
<line x1="480" y1="817" x2="480" y2="955" stroke="#059669" stroke-width="1.7" marker-end="url(#arrow-green)"/>
<rect x="489.25" y="882" width="31.5" height="18" rx="6" fill="#ffffff" stroke="#e5e7eb"/>
<text x="505" y="895" font-family="Inter, Segoe UI, Arial, sans-serif" font-size="11" font-weight="600" text-anchor="middle" fill="#059669">yes</text>
<path d="M 620 760 H 780 V 955" fill="none" stroke="#d97706" stroke-width="1.7" marker-end="url(#arrow-orange)"/>
<rect x="680.25" y="747" width="109.5" height="18" rx="6" fill="#ffffff" stroke="#e5e7eb"/>
<text x="735" y="760" font-family="Inter, Segoe UI, Arial, sans-serif" font-size="11" font-weight="600" text-anchor="middle" fill="#d97706">no; window open</text>
<path d="M 210 1060 V 1192 H 320" fill="none" stroke="#7c3aed" stroke-width="1.7" marker-end="url(#arrow-purple)"/>
<line x1="495" y1="1060" x2="495" y2="1145" stroke="#7c3aed" stroke-width="1.7" marker-end="url(#arrow-purple)"/>
<path d="M 780 1060 V 1192 H 640" fill="none" stroke="#7c3aed" stroke-width="1.7" marker-end="url(#arrow-purple)"/>
</svg>